<svg xmlns="http://www.w3.org/2000/svg" viewBox="0 0 794 1123" preserveAspectRatio="xMidYMid slice">
  <defs>
    <linearGradient id="bgmatematikaE" x1="0" y1="0" x2="1" y2="1"><stop stop-color="#173A8F"/><stop offset=".56" stop-color="#1D76D2"/><stop offset="1" stop-color="#55D6E8"/></linearGradient>
    <linearGradient id="fadematematikaE" x1="0" y1="0" x2="0" y2="1"><stop stop-color="#fff" stop-opacity=".06"/><stop offset="1" stop-color="#fff" stop-opacity=".92"/></linearGradient>
    <pattern id="dotsmatematikaE" width="34" height="34" patternUnits="userSpaceOnUse"><circle cx="3" cy="3" r="2.2" fill="#fff" opacity=".22"/></pattern>
    <filter id="shadowmatematikaE" x="-30%" y="-30%" width="160%" height="160%"><feDropShadow dx="0" dy="15" stdDeviation="18" flood-color="#08121f" flood-opacity=".2"/></filter>
  </defs>
  <rect width="794" height="1123" fill="#f7fafc"/>
  <path d="M0 0h794v500C620 515 260 570 0 515z" fill="url(#bgmatematikaE)"/>
  <path d="M0 0h794v500C620 515 260 570 0 515z" fill="url(#dotsmatematikaE)"/>
  <path d="M-80 430L874 410v110L-80 540z" fill="#fff" opacity=".09"/>
  <circle cx="628" cy="172" r="220" fill="#fff" opacity=".09"/>
  <circle cx="628" cy="172" r="154" fill="none" stroke="#fff" stroke-width="2" opacity=".25"/>
  <g transform="translate(405 76) scale(1.25)" opacity=".9"><g fill="none" stroke="#fff" stroke-width="8" stroke-linecap="round" stroke-linejoin="round"><rect x="25" y="25" width="206" height="206" rx="28"/><path d="M60 184L104 126l31 26 58-83"/><circle cx="104" cy="126" r="8" fill="#fff"/><circle cx="135" cy="152" r="8" fill="#fff"/><path d="M70 72h44M92 50v44M160 62h38M160 88h38M179 54v42"/></g></g>
  <path d="M0 1010c210-58 387-43 530 5 98 33 186 32 264-5v113H0z" fill="#173A8F" opacity=".08"/>
  <path d="M0 1046c190-42 354-35 510 8 113 31 208 28 284-7v76H0z" fill="#1D76D2" opacity=".09"/>
  <rect x="0" y="0" width="16" height="1123" fill="#55D6E8" opacity=".95"/>
  <rect x="16" y="0" width="6" height="1123" fill="#fff" opacity=".38"/>
  </svg>